<?xml version="1.0" encoding="UTF-8"?><svg id="Calque_1" xmlns="http://www.w3.org/2000/svg" viewBox="0 0 60.28 10.78"><path d="M46.12,.1c-2.21,0-4.58,1.45-4.58,4.63v5.66h1.67V4.96c0-1.99,1.19-3.26,2.95-3.26,.12,0,.68-.01,1.06,.06,0,0,0-1.5,0-1.5-.27-.12-.91-.17-1.1-.17"/><path d="M5.3,.1c1.84,0,3.35,.77,4.2,2.18l-1.31,.91c-.61-1.01-1.62-1.55-2.87-1.55-1.01,0-1.84,.34-2.48,1.03s-.95,1.59-.95,2.72,.32,2.02,.95,2.72c.63,.69,1.47,1.03,2.48,1.03,1.25,0,2.26-.53,2.87-1.55l1.31,.91c-.85,1.41-2.36,2.18-4.2,2.18C2.24,10.68,.14,8.44,.14,5.39S2.24,.1,5.3,.1"/><path d="M13.78,.38h1.67V6.56c0,1.66,.97,2.58,2.66,2.58s2.66-.91,2.66-2.58V.38h1.67V6.66c0,2.38-1.72,4.02-4.32,4.02s-4.32-1.65-4.32-4.02V.38Z"/><path d="M27.6,.38h1.67V6.56c0,1.66,.97,2.58,2.66,2.58s2.66-.91,2.66-2.58V.38h1.67V6.66c0,2.38-1.73,4.02-4.32,4.02s-4.32-1.65-4.32-4.02V.38Z"/><path d="M52.05,5.91c.18,2,1.53,3.23,3.49,3.23,1.29,0,2.36-.52,3.19-1.57l1.13,.95c-.97,1.37-2.52,2.16-4.36,2.16-3.03,0-5.15-2.16-5.15-5.27S52.41,.1,55.36,.1c2.8,0,4.78,2,4.78,4.92,0,.3-.02,.59-.06,.89h-8.03Zm6.38-1.35c-.16-1.84-1.33-2.91-3.07-2.91s-2.97,1.11-3.27,2.91h6.34Z"/></svg>