<svg width="15" height="17" viewBox="0 0 15 17" fill="none" xmlns="http://www.w3.org/2000/svg">
<path fill-rule="evenodd" clip-rule="evenodd" d="M7.5 8C9.433 8 11 6.433 11 4.5C11 2.567 9.433 1 7.5 1C5.567 1 4 2.567 4 4.5C4 6.433 5.567 8 7.5 8ZM7.5 9C9.98528 9 12 6.98528 12 4.5C12 2.01472 9.98528 0 7.5 0C5.01472 0 3 2.01472 3 4.5C3 6.98528 5.01472 9 7.5 9ZM13.9811 17C13.9936 16.835 14 16.6682 14 16.5C14 12.9101 11.0899 10 7.5 10C3.91015 10 1 12.9101 1 16.5C1 16.6682 1.00639 16.835 1.01894 17H0.0164023C0.00552468 16.8347 0 16.668 0 16.5C0 12.3579 3.35786 9 7.5 9C11.6421 9 15 12.3579 15 16.5C15 16.668 14.9945 16.8347 14.9836 17H13.9811Z" fill="black"/>
</svg>
