<?xml version="1.0" encoding="UTF-8"?><svg id="Calque_1" xmlns="http://www.w3.org/2000/svg" viewBox="0 0 100 100"><defs><style>.cls-1{fill:none;stroke:#000;stroke-miterlimit:10;stroke-width:2px;}</style></defs><rect class="cls-1" x="4.54" y="3.85" width="89.85" height="89.85" rx="11.15" ry="11.15"/><g><path d="M29.48,23.36c3.4,0,6.1,2.75,6.07,6.12-.03,3.37-2.77,6.12-6.17,6.12s-6.1-2.75-6.07-6.12,2.79-6.12,6.17-6.12Z"/><polygon points="34.65 40.22 34.39 74.19 23.82 74.19 24.08 40.22 34.65 40.22"/><path d="M61.52,39.39c10.7,0,12.61,7.01,12.54,16.17l-.14,18.63h-10.54l.13-16.51c.03-3.95-.02-9.02-5.43-9.02s-6.35,4.29-6.39,8.73l-.13,16.8h-10.56l.26-33.97h10.12l-.04,4.65h.16c1.43-2.66,4.89-5.47,10.03-5.47Z"/></g></svg>