<?xml version="1.0" encoding="UTF-8"?><svg id="Calque_1" xmlns="http://www.w3.org/2000/svg" viewBox="0 0 1006.3 1005.93"><g><path d="M523.26,255.57c86.26,0,156.76,36.18,196.64,102.03l-61.22,42.67c-28.75-47.31-76.06-72.35-134.5-72.35-47.31,0-86.26,15.77-115.94,48.24-29.68,32.47-44.53,74.21-44.53,127.08,0,52.87,14.84,94.61,44.53,127.08,29.68,32.46,68.64,48.23,115.94,48.23,58.44,0,105.74-25.04,134.5-72.35l61.22,42.67c-39.88,65.86-110.38,102.03-196.64,102.03-142.85,0-241.17-104.81-241.17-247.65,0-142.85,98.32-247.66,241.17-247.66Z"/><path d="M383.7,8.7c0-4.51-3.67-8.18-8.18-8.18H2s0,743.65,0,743.65c0,4.51,3.67,8.18,8.18,8.18,4.51,0,8.18-3.67,8.18-8.18V16.89s357.16,0,357.16,0c4.51,0,8.18-3.67,8.18-8.18Z"/></g><path d="M624.6,997.75c0,4.51,3.67,8.18,8.18,8.18h373.52s0-743.65,0-743.65c0-4.51-3.67-8.18-8.18-8.18-4.51,0-8.18,3.67-8.18,8.18V989.57s-357.16,0-357.16,0c-4.51,0-8.18,3.67-8.18,8.18Z"/></svg>