<svg id="Calque_1" data-name="Calque 1" xmlns="http://www.w3.org/2000/svg" viewBox="0 0 85.4 98.79"><path d="M25.84,23.9c.95-4.39,2.79-8,6.19-10.7a16.77,16.77,0,0,1,26.76,8.7c.48,1.73,1.2,2.08,2.76,2,2.94-.1,5.89,0,8.83-.05,2.11-.06,3.12.82,3.12,2.93,0,17.42.08,34.85-.06,52.28A11.13,11.13,0,0,1,62.36,90.31q-19.68.34-39.38,0c-6.72-.11-11.26-5.28-11.27-12q0-25.43,0-50.86c0-3.1.45-3.52,3.64-3.53Zm33.61,4.93c0,2.25,0,4.23,0,6.22,0,1.83-.62,3.18-2.7,3.13s-2.52-1.31-2.48-3.06c0-2,0-4.09,0-6.2H30.86c0,2.1,0,4,0,5.89s-.21,3.3-2.38,3.37-2.77-1.44-2.77-3.31,0-3.93,0-6H16.64c0,.88-.11,1.59-.11,2.29q0,23.15,0,46.3c0,5.23,2.87,8.07,8.16,8.08q17.89,0,35.8,0c5.3,0,8.12-2.83,8.12-8.07q0-23.16,0-46.3c0-.77-.08-1.53-.13-2.38Zm-28-5.15H53.75a11.16,11.16,0,0,0-11.21-9A11.14,11.14,0,0,0,31.44,23.68Z"/></svg>